<?xml version="1.0" encoding="utf-8"?>
<!-- Generator: Adobe Illustrator 16.0.4, SVG Export Plug-In . SVG Version: 6.00 Build 0)  -->
<!DOCTYPE svg PUBLIC "-//W3C//DTD SVG 1.1//EN" "http://www.w3.org/Graphics/SVG/1.1/DTD/svg11.dtd">
<svg version="1.1" id="Layer_1" xmlns="http://www.w3.org/2000/svg" xmlns:xlink="http://www.w3.org/1999/xlink" x="0px" y="0px"
	 width="612px" height="792px" viewBox="0 0 612 792" enable-background="new 0 0 612 792" xml:space="preserve">
<path fill="#FFFFFF" stroke="#231F20" stroke-miterlimit="10" d="M47.354,43.619h200v40.506c0,0,103.798-35.443,103.798,0
	s-62.026,86.076,10.126,86.076s38.608-100.633,83.545-55.696s12.658,100,12.658,100H418.24c0,0-20.887-1.266-20.887,20.886
	s5.697,62.658,5.697,62.658s-27.848-11.392,0,16.456s56.962,0,56.962,0l8.689,74.684L175.203,396c0,0-148.583-76.823-76.823-76.823
	s145.178,71.278,145.178,5.455s92.406-118.987-18.987-118.987c-111.393,0-130.38-46.835-81.013-46.835s92.405-56.962,39.24-56.962
	s-44.304-29.114-44.304-29.114"/>
</svg>
